<?xml version="1.0" encoding="UTF-8"?>
<svg width="203px" height="16px" viewBox="0 0 203 16" version="1.1" xmlns="http://www.w3.org/2000/svg" xmlns:xlink="http://www.w3.org/1999/xlink">
    <title>成为全球领先的智能科技公司</title>
    <g id="页面-1" stroke="none" stroke-width="1" fill="none" fill-rule="evenodd">
        <g id="CPMS风格二" transform="translate(-129.000000, -16.000000)" fill="#FFFFFF" fill-rule="nonzero">
            <g id="首页/导航/顶部导航栏/默认白">
                <path d="M141.688,31.648 C142.04,31.648 142.333333,31.6106667 142.568,31.536 C142.802667,31.4613333 143.024,31.2906667 143.232,31.024 C143.44,30.7573333 143.629333,30.3466667 143.8,29.792 C143.906667,29.376 143.992,28.944 144.056,28.496 L144.056,28.496 L144.152,28 L142.504,27.248 L142.376,27.968 C142.322667,28.3093333 142.274667,28.5493333 142.232,28.688 C142.136,29.0293333 142.048,29.2533333 141.968,29.36 C141.888,29.4666667 141.794667,29.52 141.688,29.52 C141.602667,29.52 141.490667,29.4746667 141.352,29.384 C141.213333,29.2933333 141.08,29.152 140.952,28.96 C140.738667,28.6186667 140.530667,28.224 140.328,27.776 C140.882667,27.0293333 141.365333,26.2293333 141.776,25.376 C142.186667,24.5226667 142.573333,23.568 142.936,22.512 L142.936,22.512 L141.24,21.84 C140.770667,23.3333333 140.232,24.5706667 139.624,25.552 C139.357333,24.3893333 139.144,22.96 138.984,21.264 L138.984,21.264 L143.288,21.264 L143.288,19.312 L141.976,19.312 L142.424,18.832 C141.944,18.32 141.325333,17.7066667 140.568,16.992 L140.568,16.992 L139.4,18.16 C139.741333,18.48 140.130667,18.864 140.568,19.312 L140.568,19.312 L138.824,19.312 L138.68,17.296 L136.808,17.248 L136.968,19.312 L131.016,19.312 L131.016,23.808 C131.016,24.9813333 130.96,25.9466667 130.848,26.704 C130.736,27.4613333 130.56,28.136 130.32,28.728 C130.08,29.32 129.730667,29.984 129.272,30.72 L129.272,30.72 L131.112,31.632 C131.709333,30.5546667 132.141333,29.5013333 132.408,28.472 C132.674667,27.4426667 132.824,26.192 132.856,24.72 L132.856,24.72 L134.792,24.72 L134.616,27.488 C134.594667,27.7546667 134.512,27.9413333 134.368,28.048 C134.224,28.1546667 133.965333,28.2293333 133.592,28.272 L133.592,28.272 L132.744,28.368 L133.384,30.288 L134.232,30.192 C134.84,30.128 135.293333,30.0106667 135.592,29.84 L135.592,29.84 L136.808,31.232 C137.576,30.6666667 138.312,30.032 139.016,29.328 C139.08,29.456 139.133333,29.552 139.176,29.616 C139.624,30.3413333 140.04,30.8613333 140.424,31.176 C140.808,31.4906667 141.229333,31.648 141.688,31.648 Z M136.152,29.28 C136.322667,28.9813333 136.429333,28.56 136.472,28.016 C136.514667,27.696 136.568,26.832 136.632,25.424 C136.696,24.016 136.728,23.136 136.728,22.784 L136.728,22.784 L132.872,22.784 L132.872,21.264 L137.112,21.264 C137.325333,23.696 137.693333,25.744 138.216,27.408 C137.650667,28.016 136.962667,28.64 136.152,29.28 Z M147.112,31.664 C148.562667,30.544 149.701333,29.4506667 150.528,28.384 C151.354667,27.3173333 151.976,26.1173333 152.392,24.784 C152.733333,25.1146667 153.146667,25.568 153.632,26.144 C154.117333,26.72 154.445333,27.1466667 154.616,27.424 L154.616,27.424 L156.056,25.936 C155.832,25.6373333 155.453333,25.2 154.92,24.624 C154.386667,24.048 153.965333,23.616 153.656,23.328 L153.656,23.328 L152.52,24.368 C152.690667,23.7386667 152.829333,23.1146667 152.936,22.496 L152.936,22.496 L156.728,22.496 C156.696,23.2426667 156.650667,24.248 156.592,25.512 C156.533333,26.776 156.477333,27.6586667 156.424,28.16 C156.392,28.4693333 156.336,28.6986667 156.256,28.848 C156.176,28.9973333 156.04,29.1066667 155.848,29.176 C155.656,29.2453333 155.357333,29.3013333 154.952,29.344 L154.952,29.344 L153.704,29.488 L154.392,31.504 L155.544,31.376 C156.216,31.3013333 156.752,31.1893333 157.152,31.04 C157.552,30.8906667 157.858667,30.664 158.072,30.36 C158.285333,30.056 158.413333,29.648 158.456,29.136 C158.509333,28.432 158.578667,27.1706667 158.664,25.352 C158.749333,23.5333333 158.813333,22.0266667 158.856,20.832 L158.856,20.832 L158.872,20.448 L153.192,20.448 C153.341333,19.0293333 153.416,18.0266667 153.416,17.44 L153.416,17.44 L151.352,17.36 C151.32,17.9253333 151.24,18.9546667 151.112,20.448 L151.112,20.448 L149.64,20.448 L150.552,19.552 C150.338667,19.2533333 149.997333,18.856 149.528,18.36 C149.058667,17.864 148.68,17.4986667 148.392,17.264 L148.392,17.264 L147,18.496 C147.202667,18.6773333 147.485333,18.9653333 147.848,19.36 C148.210667,19.7546667 148.52,20.1173333 148.776,20.448 L148.776,20.448 L146.328,20.448 L146.328,22.496 L150.856,22.496 C150.653333,23.5733333 150.338667,24.528 149.912,25.36 C149.485333,26.192 148.92,26.9706667 148.216,27.696 C147.512,28.4213333 146.6,29.1893333 145.48,30 L145.48,30 L147.112,31.664 Z M174.712,31.152 L174.712,29.248 L169.4,29.248 L169.4,27.456 L173.4,27.456 L173.4,25.536 L169.4,25.536 L169.4,23.936 L172.904,23.936 L172.904,22.992 C173.373333,23.2906667 173.986667,23.632 174.744,24.016 L174.744,24.016 L175.8,22.256 C174.413333,21.6053333 173.146667,20.8586667 172,20.016 C170.853333,19.1733333 169.890667,18.1653333 169.112,16.992 L169.112,16.992 L167.608,16.992 C166.157333,19.1786667 163.901333,20.9493333 160.84,22.304 L160.84,22.304 L161.976,24.08 C162.605333,23.7493333 163.234667,23.3973333 163.864,23.024 L163.864,23.024 L163.864,23.936 L167.288,23.936 L167.288,25.536 L163.288,25.536 L163.288,27.456 L167.288,27.456 L167.288,29.248 L161.96,29.248 L161.96,31.152 L174.712,31.152 Z M171.416,22.016 L165.384,22.016 C166.610667,21.1306667 167.608,20.16 168.376,19.104 C169.186667,20.16 170.2,21.1306667 171.416,22.016 L171.416,22.016 Z M183.912,31.696 L185.176,31.552 C185.666667,31.4986667 186.029333,31.4 186.264,31.256 C186.498667,31.112 186.658667,30.8666667 186.744,30.52 C186.829333,30.1733333 186.872,29.6426667 186.872,28.928 L186.872,28.928 L186.872,25.44 C187.757333,27.2746667 188.904,28.8853333 190.312,30.272 L190.312,30.272 L191.592,28.752 C190.536,27.856 189.565333,26.704 188.68,25.296 C189.544,24.5386667 190.269333,23.7653333 190.856,22.976 L190.856,22.976 L189.464,21.776 C188.994667,22.4693333 188.450667,23.1253333 187.832,23.744 C187.437333,22.912 187.133333,22.16 186.92,21.488 L186.92,21.488 L190.696,21.488 L190.696,19.552 L189.544,19.552 L190.088,18.944 C189.490667,18.304 188.914667,17.7653333 188.36,17.328 L188.36,17.328 L187.304,18.416 C187.645333,18.7146667 188.029333,19.0933333 188.456,19.552 L188.456,19.552 L186.872,19.552 L186.872,17.296 L185.016,17.216 L185.016,19.552 L181.96,19.552 L181.96,21.488 L185.016,21.488 L185.016,24.672 C184.514667,25.0986667 183.928,25.544 183.256,26.008 C182.584,26.472 182.056,26.8106667 181.672,27.024 L181.672,27.024 L182.648,28.704 L183.08,28.384 C183.869333,27.8293333 184.514667,27.3493333 185.016,26.944 L185.016,26.944 L185.016,28.608 C185.016,28.96 185,29.2053333 184.968,29.344 C184.936,29.4826667 184.869333,29.5786667 184.768,29.632 C184.666667,29.6853333 184.493333,29.728 184.248,29.76 L184.248,29.76 L183.352,29.856 L183.912,31.696 Z M177.16,30.576 C177.885333,30.4373333 178.434667,30.336 178.808,30.272 C180.461333,29.952 181.517333,29.7386667 181.976,29.632 L181.976,29.632 L181.88,27.712 C181.368,27.84 180.941333,27.9413333 180.6,28.016 L180.6,28.016 L180.6,24.992 L181.704,24.992 L181.704,23.12 L180.6,23.12 L180.6,20.4 L181.784,20.4 L181.784,18.464 L177.368,18.464 L177.368,20.4 L178.76,20.4 L178.76,23.12 L177.384,23.12 L177.384,24.992 L178.76,24.992 L178.76,28.384 C177.821333,28.5546667 177.202667,28.6613333 176.904,28.704 L176.904,28.704 L177.16,30.576 Z M183.464,25.392 L184.872,24.256 C184.413333,23.4773333 183.821333,22.6453333 183.096,21.76 L183.096,21.76 L181.736,22.752 C182.344,23.5733333 182.92,24.4533333 183.464,25.392 L183.464,25.392 Z M201.144,27.808 L201.144,22.384 L204.328,22.384 L204.328,27.792 L206.216,27.792 L206.216,20.736 L203.32,20.736 L203.4,20.416 C203.432,20.2986667 203.501333,20.032 203.608,19.616 L203.608,19.616 L206.776,19.616 L206.776,17.776 L198.888,17.776 L198.888,19.616 L201.592,19.616 L201.304,20.736 L199.352,20.736 C199.021333,20.2986667 198.648,19.848 198.232,19.384 C197.816,18.92 197.426667,18.528 197.064,18.208 L197.064,18.208 L197.304,17.536 L195.608,17.056 C195.309333,17.9093333 194.837333,18.84 194.192,19.848 C193.546667,20.856 192.898667,21.6586667 192.248,22.256 L192.248,22.256 L193.384,23.632 C194.632,22.384 195.613333,21.0986667 196.328,19.776 C196.946667,20.48 197.618667,21.3386667 198.344,22.352 L198.344,22.352 L199.288,21.296 L199.288,27.808 L201.144,27.808 Z M196.936,31.376 L198.008,29.76 C197.762667,29.4826667 197.432,29.152 197.016,28.768 C197.442667,28.1706667 197.794667,27.6613333 198.072,27.24 C198.349333,26.8186667 198.610667,26.368 198.856,25.888 L198.856,25.888 L198.856,24 L196.728,24 L197.72,23.216 C197.517333,22.8533333 197.274667,22.4773333 196.992,22.088 C196.709333,21.6986667 196.44,21.376 196.184,21.12 L196.184,21.12 L194.968,22.112 C195.16,22.3146667 195.386667,22.5946667 195.648,22.952 C195.909333,23.3093333 196.136,23.6586667 196.328,24 L196.328,24 L193.336,24 L193.336,25.728 L197.112,25.728 C196.888,26.2186667 196.456,26.8746667 195.816,27.696 C195.378667,27.3226667 194.909333,26.9493333 194.408,26.576 L194.408,26.576 L193.32,27.92 C193.853333,28.3146667 194.466667,28.8453333 195.16,29.512 C195.853333,30.1786667 196.445333,30.8 196.936,31.376 L196.936,31.376 Z M198.952,31.92 C199.933333,31.4186667 200.725333,30.944 201.328,30.496 C201.930667,30.048 202.402667,29.5733333 202.744,29.072 C204.216,30.2133333 205.266667,31.12 205.896,31.792 L205.896,31.792 L207.096,30.08 C206.626667,29.6853333 206.026667,29.2213333 205.296,28.688 C204.565333,28.1546667 203.944,27.728 203.432,27.408 C203.549333,26.8746667 203.608,26.224 203.608,25.456 L203.608,25.456 L203.608,22.912 L201.8,22.848 L201.8,25.024 C201.8,25.9946667 201.709333,26.76 201.528,27.32 C201.346667,27.88 200.984,28.3786667 200.44,28.816 C199.896,29.2533333 199.053333,29.712 197.912,30.192 L197.912,30.192 L198.952,31.92 Z M210.088,31.792 C211.24,31.1733333 212.117333,30.592 212.72,30.048 C213.322667,29.504 213.768,28.872 214.056,28.152 C214.344,27.432 214.530667,26.4906667 214.616,25.328 L214.616,25.328 L216.312,25.328 L216.312,29.136 C216.312,29.7013333 216.370667,30.1333333 216.488,30.432 C216.605333,30.7306667 216.810667,30.952 217.104,31.096 C217.397333,31.24 217.816,31.3386667 218.36,31.392 C218.541333,31.4133333 218.893333,31.424 219.416,31.424 L219.60025,31.4235 C220.012083,31.4211667 220.297333,31.4106667 220.456,31.392 C220.968,31.3493333 221.357333,31.28 221.624,31.184 C221.890667,31.088 222.104,30.9173333 222.264,30.672 C222.424,30.4266667 222.541333,30.0533333 222.616,29.552 C222.68,29.1253333 222.722667,28.656 222.744,28.144 L222.744,28.144 L220.888,27.552 C220.888,27.7653333 220.869333,27.992 220.832,28.232 C220.794667,28.472 220.770667,28.6293333 220.76,28.704 C220.717333,29.024 220.610667,29.2293333 220.44,29.32 C220.269333,29.4106667 219.954667,29.456 219.496,29.456 L219.496,29.456 L219.08,29.44 C218.76,29.4186667 218.546667,29.3573333 218.44,29.256 C218.333333,29.1546667 218.28,28.9546667 218.28,28.656 L218.28,28.656 L218.28,25.328 L222.248,25.328 L222.248,23.424 L216.792,23.424 L216.792,21.344 L221.528,21.344 L221.528,19.44 L216.792,19.44 L216.792,17.36 L214.824,17.28 L214.824,19.44 L212.888,19.44 C213.005333,19.12 213.144,18.6826667 213.304,18.128 L213.304,18.128 L211.368,17.68 C211.058667,18.7146667 210.725333,19.6373333 210.368,20.448 C210.010667,21.2586667 209.581333,22.0106667 209.08,22.704 L209.08,22.704 L210.44,23.424 L208.808,23.424 L208.808,25.328 L212.6,25.328 C212.557333,26.1706667 212.410667,26.856 212.16,27.384 C211.909333,27.912 211.512,28.3733333 210.968,28.768 C210.424,29.1626667 209.64,29.5786667 208.616,30.016 L208.616,30.016 L210.088,31.792 Z M214.824,23.424 L211.032,23.424 C211.416,22.7626667 211.778667,22.0693333 212.12,21.344 L212.12,21.344 L214.824,21.344 L214.824,23.424 Z M233.96,31.568 L235.672,31.408 C236.12,31.3653333 236.477333,31.2906667 236.744,31.184 C237.010667,31.0773333 237.218667,30.904 237.368,30.664 C237.517333,30.424 237.602667,30.08 237.624,29.632 C237.730667,27.8933333 237.853333,24.4426667 237.992,19.28 L237.992,19.28 L233.96,19.28 C234.248,18.5013333 234.461333,17.8666667 234.6,17.376 L234.6,17.376 L232.6,17.12 C232.429333,17.7173333 232.184,18.4053333 231.864,19.184 C231.544,19.9626667 231.202667,20.704 230.84,21.408 L230.84,21.408 L230.84,19.28 L228.52,19.28 L229.16,17.456 L227.096,17.248 L226.424,19.28 L224.872,19.28 L224.872,31.264 L230.84,31.248 L230.84,22.496 L232.152,23.168 C232.482667,22.624 232.813333,21.9893333 233.144,21.264 L233.144,21.264 L235.896,21.264 C235.853333,24.1653333 235.778667,26.5226667 235.672,28.336 C235.650667,28.624 235.616,28.8346667 235.568,28.968 C235.52,29.1013333 235.445333,29.192 235.344,29.24 C235.242667,29.288 235.08,29.3226667 234.856,29.344 L234.856,29.344 L233.336,29.488 L233.96,31.568 Z M228.968,24.048 L226.776,24.048 L226.776,21.232 L228.968,21.232 L228.968,24.048 Z M233.768,27.328 L235.272,26 C234.984,25.5093333 234.672,25.0293333 234.336,24.56 C234,24.0906667 233.586667,23.5466667 233.096,22.928 L233.096,22.928 L231.64,24.112 C232.493333,25.232 233.202667,26.304 233.768,27.328 L233.768,27.328 Z M228.968,29.264 L226.776,29.264 L226.776,26.032 L228.968,26.032 L228.968,29.264 Z M252.2,31.312 L252.2,24.784 L246.744,24.784 L247.64,23.392 C247.234667,23.1466667 246.573333,22.7893333 245.656,22.32 L245.656,22.32 L245.32,22.144 L247.464,22.144 L247.464,20.624 L245.24,20.624 L245.24,19.696 L247.224,19.696 L247.224,18.16 L243.368,18.16 C243.570667,17.6586667 243.688,17.36 243.72,17.264 L243.72,17.264 L242.008,16.96 C241.826667,17.44 241.586667,17.9493333 241.288,18.488 C240.989333,19.0266667 240.648,19.5146667 240.264,19.952 L240.264,19.952 L241.16,20.624 L240.392,20.624 L240.392,22.144 L242.92,22.144 C242.664,22.528 242.290667,22.8693333 241.8,23.168 C241.309333,23.4666667 240.685333,23.76 239.928,24.048 L239.928,24.048 L240.92,25.744 L241.896,25.296 L241.896,31.312 L252.2,31.312 Z M253.544,24.048 L253.544,18.08 L247.896,18.08 L247.896,24.048 L253.544,24.048 Z M243.432,20.624 L241.96,20.624 C242.237333,20.2186667 242.44,19.9093333 242.568,19.696 L242.568,19.696 L243.432,19.696 L243.432,20.624 Z M251.8,22.336 L249.672,22.336 L249.672,19.728 L251.8,19.728 L251.8,22.336 Z M246.504,24.784 L242.856,24.784 C243.570667,24.368 244.098667,23.9253333 244.44,23.456 C245.272,23.9573333 245.96,24.4 246.504,24.784 L246.504,24.784 Z M250.2,27.264 L243.912,27.264 L243.912,26.336 L250.2,26.336 L250.2,27.264 Z M250.2,29.728 L243.912,29.728 L243.912,28.8 L250.2,28.8 L250.2,29.728 Z M266.5915,24.2235 C266.887833,24.2211667 267.306667,24.2106667 267.848,24.192 C268.424,24.16 268.845333,24.032 269.112,23.808 C269.378667,23.584 269.570667,23.1733333 269.688,22.576 C269.741333,22.3093333 269.794667,21.9893333 269.848,21.616 L269.848,21.616 L268.28,20.992 C268.258667,21.28 268.216,21.552 268.152,21.808 C268.098667,22.0426667 268.016,22.1973333 267.904,22.272 C267.792,22.3466667 267.576,22.3946667 267.256,22.416 L267.256,22.416 L266.008,22.416 C265.762667,22.3946667 265.605333,22.352 265.536,22.288 C265.466667,22.224 265.432,22.0693333 265.432,21.824 L265.432,21.824 L265.432,20.96 C266.157333,20.704 266.906667,20.424 267.68,20.12 C268.453333,19.816 269.042667,19.5626667 269.448,19.36 L269.448,19.36 L268.584,17.808 C268.253333,18.0106667 267.789333,18.2506667 267.192,18.528 C266.594667,18.8053333 266.008,19.0613333 265.432,19.296 L265.432,19.296 L265.432,17.472 L263.608,17.376 L263.608,21.136 C263.298667,20.6773333 262.925333,20.1653333 262.488,19.6 C262.050667,19.0346667 261.672,18.576 261.352,18.224 L261.352,18.224 L260.008,19.28 C260.242667,19.5466667 260.509333,19.888 260.808,20.304 L260.808,20.304 L260.408,20.336 L258.456,20.448 C259.010667,19.9573333 259.698667,19.0986667 260.52,17.872 L260.52,17.872 L258.744,17.024 C258.509333,17.5253333 258.170667,18.0826667 257.728,18.696 C257.285333,19.3093333 256.952,19.7226667 256.728,19.936 C256.674667,19.968 256.6,20.0266667 256.504,20.112 C256.408,20.1973333 256.296,20.256 256.168,20.288 L256.168,20.288 L256.616,22.144 C256.882667,22.08 257.32,22.0213333 257.928,21.968 C259.570667,21.8506667 260.856,21.776 261.784,21.744 C261.976,22.032 262.114667,22.2666667 262.2,22.448 L262.2,22.448 L263.608,21.312 L263.608,22.448 C263.608,23.0453333 263.728,23.48 263.968,23.752 C264.208,24.024 264.578667,24.1706667 265.08,24.192 C265.698667,24.2133333 266.162667,24.224 266.472,24.224 L266.5915,24.2235 Z M260.28,31.616 L261.016,31.552 C261.496,31.5093333 261.861333,31.432 262.112,31.32 C262.362667,31.208 262.541333,31.0293333 262.648,30.784 C262.754667,30.5386667 262.808,30.192 262.808,29.744 L262.808,29.744 L262.808,22.672 L256.648,22.672 L256.648,31.568 L258.36,31.568 L258.36,28.768 L261.16,28.768 L261.16,29.168 C261.16,29.4453333 261.117333,29.632 261.032,29.728 C260.946667,29.824 260.802667,29.8826667 260.6,29.904 L260.6,29.904 L259.768,29.984 L260.28,31.616 Z M261.144,25.088 L258.36,25.088 L258.36,24.224 L261.144,24.224 L261.144,25.088 Z M266.568,31.312 C266.973333,31.312 267.384,31.296 267.8,31.264 C268.408,31.2213333 268.858667,31.0853333 269.152,30.856 C269.445333,30.6266667 269.650667,30.2186667 269.768,29.632 C269.874667,28.96 269.933333,28.5333333 269.944,28.352 L269.944,28.352 L268.376,27.712 C268.344,28.1173333 268.296,28.4746667 268.232,28.784 C268.168,29.072 268.072,29.2613333 267.944,29.352 C267.816,29.4426667 267.576,29.504 267.224,29.536 L267.224,29.536 L266.12,29.536 C265.864,29.5146667 265.685333,29.464 265.584,29.384 C265.482667,29.304 265.432,29.1413333 265.432,28.896 L265.432,28.896 L265.432,28.064 C266.242667,27.7546667 267.045333,27.424 267.84,27.072 C268.634667,26.72 269.256,26.4 269.704,26.112 L269.704,26.112 L268.76,24.592 C268.130667,25.0186667 267.021333,25.584 265.432,26.288 L265.432,26.288 L265.432,24.608 L263.624,24.512 L263.624,29.52 C263.624,30.1066667 263.749333,30.536 264,30.808 C264.250667,31.08 264.637333,31.232 265.16,31.264 C265.629333,31.296 266.098667,31.312 266.568,31.312 Z M261.16,27.344 L258.36,27.344 L258.36,26.496 L261.144,26.496 L261.16,27.344 Z M283.672,31.52 L283.672,27.68 L285.608,27.472 L285.448,25.536 L283.672,25.728 L283.672,17.296 L281.672,17.248 L281.672,25.936 L277.016,26.416 L277.176,28.352 L281.672,27.888 L281.672,31.52 L283.672,31.52 Z M275.736,31.52 L275.736,25.76 C276.034667,26.112 276.301333,26.4693333 276.536,26.832 L276.536,26.832 L277.672,25.6 C277.469333,25.344 277.213333,25.0426667 276.904,24.696 C276.594667,24.3493333 276.354667,24.096 276.184,23.936 L276.184,23.936 L275.736,24.336 L275.736,23.168 L277.4,23.168 L277.4,21.28 L275.736,21.28 L275.736,19.744 C276.472,19.584 277.064,19.44 277.512,19.312 L277.512,19.312 L277.144,17.52 C276.418667,17.7546667 275.584,17.9653333 274.64,18.152 C273.696,18.3386667 272.749333,18.4906667 271.8,18.608 L271.8,18.608 L272.152,20.32 C272.770667,20.2453333 273.341333,20.1653333 273.864,20.08 L273.864,20.08 L273.864,21.28 L271.912,21.28 L271.912,23.168 L273.512,23.168 C272.84,24.7786667 271.949333,26.2826667 270.84,27.68 L270.84,27.68 L272.12,29.04 C272.813333,28.0906667 273.394667,27.1146667 273.864,26.112 L273.864,26.112 L273.864,31.52 L275.736,31.52 Z M280.424,22.032 L281.464,20.48 C281.176,20.1706667 280.794667,19.8213333 280.32,19.432 C279.845333,19.0426667 279.394667,18.6986667 278.968,18.4 L278.968,18.4 L277.816,19.808 C278.68,20.4266667 279.549333,21.168 280.424,22.032 L280.424,22.032 Z M279.944,25.84 L281.08,24.224 C280.749333,23.904 280.336,23.5413333 279.84,23.136 C279.344,22.7306667 278.904,22.3893333 278.52,22.112 L278.52,22.112 L277.352,23.6 C278.205333,24.2506667 279.069333,24.9973333 279.944,25.84 L279.944,25.84 Z M300.504,31.904 L301.432,29.872 C299.981333,29.4133333 298.813333,28.88 297.928,28.272 C298.482667,27.696 298.944,27.0906667 299.312,26.456 C299.68,25.8213333 299.992,25.1413333 300.248,24.416 L300.248,24.416 L300.248,22.464 L297.336,22.464 L297.336,20.96 L300.728,20.96 L300.728,19.024 L297.336,19.024 L297.336,17.296 L295.368,17.2 L295.368,19.024 L292.488,19.024 L292.488,20.96 L295.368,20.96 L295.368,22.464 L292.696,22.464 L292.696,24.416 L293.048,24.416 C293.56,25.9626667 294.205333,27.2213333 294.984,28.192 C293.949333,28.8426667 292.706667,29.392 291.256,29.84 L291.256,29.84 L292.392,31.664 C293.992,31.0453333 295.325333,30.352 296.392,29.584 C296.914667,30 297.506667,30.392 298.168,30.76 C298.829333,31.128 299.608,31.5093333 300.504,31.904 L300.504,31.904 Z M288.184,31.6 L289.608,31.44 C289.970667,31.3973333 290.253333,31.3146667 290.456,31.192 C290.658667,31.0693333 290.813333,30.8533333 290.92,30.544 C291.026667,30.2346667 291.08,29.7866667 291.08,29.2 L291.08,29.2 L291.08,25.584 C291.570667,25.392 292.018667,25.2 292.424,25.008 L292.424,25.008 L291.992,22.96 C291.746667,23.0666667 291.442667,23.1893333 291.08,23.328 L291.08,23.328 L291.08,21.744 L292.056,21.744 L292.056,19.616 L291.08,19.616 L291.08,17.36 L289.112,17.296 L289.112,19.616 L287.592,19.616 L287.592,21.744 L289.112,21.744 L289.112,24.016 C288.269333,24.2826667 287.522667,24.5013333 286.872,24.672 L286.872,24.672 L287.464,26.88 C287.901333,26.7413333 288.450667,26.5546667 289.112,26.32 L289.112,26.32 L289.112,28.256 C289.112,28.608 289.098667,28.872 289.072,29.048 C289.045333,29.224 288.994667,29.3466667 288.92,29.416 C288.845333,29.4853333 288.728,29.5306667 288.568,29.552 L288.568,29.552 L287.608,29.648 L288.184,31.6 Z M296.488,27.024 C295.858667,26.2986667 295.373333,25.4293333 295.032,24.416 L295.032,24.416 L298.152,24.416 C297.8,25.408 297.245333,26.2773333 296.488,27.024 Z M316.024,25.472 L317.288,23.792 C316.093333,22.96 315.117333,22.04 314.36,21.032 C313.602667,20.024 312.941333,18.7626667 312.376,17.248 L312.376,17.248 L310.616,17.984 C311.128,19.168 311.621333,20.192 312.096,21.056 C312.570667,21.92 313.128,22.7253333 313.768,23.472 C314.408,24.2186667 315.16,24.8853333 316.024,25.472 L316.024,25.472 Z M304.104,25.6 C306.429333,23.296 308.168,20.8 309.32,18.112 L309.32,18.112 L307.416,17.456 C306.936,18.6506667 306.288,19.8106667 305.472,20.936 C304.656,22.0613333 303.714667,23.104 302.648,24.064 L302.648,24.064 L304.104,25.6 Z M314.072,31.664 L315.736,30.432 C315.277333,29.5893333 314.736,28.6693333 314.112,27.672 C313.488,26.6746667 312.898667,25.808 312.344,25.072 L312.344,25.072 L310.712,26.064 C311.128,26.6186667 311.661333,27.4346667 312.312,28.512 C310.744,28.6506667 309.181333,28.768 307.624,28.864 C308.072,28.3306667 308.613333,27.52 309.248,26.432 C309.882667,25.344 310.450667,24.2453333 310.952,23.136 L310.952,23.136 L309.032,22.368 C308.488,23.552 307.88,24.7146667 307.208,25.856 C306.536,26.9973333 305.970667,27.824 305.512,28.336 C305.341333,28.528 305.170667,28.672 305,28.768 C304.829333,28.864 304.626667,28.9386667 304.392,28.992 L304.392,28.992 L305,31.072 C305.234667,31.0186667 305.581333,30.9653333 306.04,30.912 C306.744,30.8373333 308.221333,30.7093333 310.472,30.528 C311.442667,30.464 312.397333,30.3893333 313.336,30.304 C313.656,30.8586667 313.901333,31.312 314.072,31.664 L314.072,31.664 Z M328.552,31.728 L330.024,31.584 C330.568,31.5306667 330.976,31.424 331.248,31.264 C331.52,31.104 331.706667,30.8533333 331.808,30.512 C331.909333,30.1706667 331.96,29.6586667 331.96,28.976 L331.96,28.976 L331.96,17.68 L320.104,17.68 L320.104,19.648 L329.848,19.648 L329.848,28.784 C329.848,29.1146667 329.797333,29.3333333 329.696,29.44 C329.594667,29.5466667 329.384,29.616 329.064,29.648 L329.064,29.648 L327.896,29.76 L328.552,31.728 Z M329.272,22.512 L329.272,20.704 L319.208,20.704 L319.208,22.512 L329.272,22.512 Z M328.136,29.648 L328.136,23.632 L320.28,23.632 L320.28,29.648 L328.136,29.648 Z M326.04,27.76 L322.376,27.76 L322.376,25.504 L326.04,25.504 L326.04,27.76 Z" id="成为全球领先的智能科技公司"></path>
            </g>
        </g>
    </g>
</svg>