<?xml version="1.0" encoding="UTF-8"?>
<svg width="29px" height="28px" viewBox="0 0 29 28" version="1.1" xmlns="http://www.w3.org/2000/svg" xmlns:xlink="http://www.w3.org/1999/xlink">
    <title>logo</title>
    <g id="页面-1" stroke="none" stroke-width="1" fill="none" fill-rule="evenodd">
        <g id="首页/导航/顶部导航栏/默认白" transform="translate(-20.000000, -10.000000)" fill="#FFFFFF">
            <path d="M30.535,35.275 L30.529,35.28 L30.5287445,35.2814007 L30.3518748,35.4181783 C29.6865149,35.904859 28.8545441,36.1940299 27.95189,36.1940299 C25.7693214,36.1940299 24,34.5034036 24,32.4179104 C24,30.3324173 25.7693214,28.641791 27.95189,28.641791 C29.0770166,28.641791 30.0923244,29.0910685 30.8109577,29.8139098 C31.8231052,30.5648356 32.931686,30.9402985 34.1367001,30.9402985 C35.4146609,30.9402985 37.2075554,30.0639639 39.5153835,28.3112947 L39.5153835,28.3112947 L39.5068759,28.3167149 C40.5124652,27.4957302 41.817639,27 43.2439863,27 C46.4229449,27 49,29.4624339 49,32.5 C49,35.5375661 46.4229449,38 43.2439863,38 C41.7043027,38 40.3058143,37.4223593 39.2731498,36.4801559 C37.3324988,34.8665196 35.6203226,34.0597015 34.1366213,34.0597015 C32.6480605,34.0597015 31.4454349,34.4669346 30.5287445,35.2814007 L30.608,35.213 L30.6038358,35.2175842 L30.535,35.275 Z M34,20 C36.209139,20 38,21.790861 38,24 C38,26.209139 36.209139,28 34,28 C31.790861,28 30,26.209139 30,24 C30,21.790861 31.790861,20 34,20 Z M25.7560137,10 C27.182361,10 28.4875348,10.4957302 29.4931241,11.3167149 L29.4846165,11.3112947 C31.7924446,13.0639639 33.5853391,13.9402985 34.8632999,13.9402985 C36.068314,13.9402985 37.1768948,13.5648356 38.1890423,12.8139098 C38.9076756,12.0910685 39.9229834,11.641791 41.04811,11.641791 C43.2306786,11.641791 45,13.3324173 45,15.4179104 C45,17.5034036 43.2306786,19.1940299 41.04811,19.1940299 C40.0633964,19.1940299 39.1628018,18.8498926 38.4708664,18.2806191 L38.464,18.275 L38.396,18.217 L38.406,18.226 L38.391,18.213 L38.284105,18.1239373 C37.3929442,17.4144467 36.2527021,17.0597015 34.8633787,17.0597015 C33.3796774,17.0597015 31.6675012,17.8665196 29.7268502,19.4801559 C28.6941857,20.4223593 27.2956973,21 25.7560137,21 C22.5770551,21 20,18.5375661 20,15.5 C20,12.4624339 22.5770551,10 25.7560137,10 Z" id="logo"></path>
        </g>
    </g>
</svg>