<?xml version="1.0" standalone="no"?><!DOCTYPE svg PUBLIC "-//W3C//DTD SVG 1.1//EN" "http://www.w3.org/Graphics/SVG/1.1/DTD/svg11.dtd"><svg t="1611798710787" class="icon" viewBox="0 0 1024 1024" version="1.1" xmlns="http://www.w3.org/2000/svg" p-id="4792" width="128" height="128" xmlns:xlink="http://www.w3.org/1999/xlink"><defs><style type="text/css"></style></defs><path d="M346.112 587.7248H211.8144c-16.9472 0-30.72-13.7728-30.72-30.72s13.7728-30.72 30.72-30.72H346.112c16.9472 0 30.72 13.7728 30.72 30.72s-13.7728 30.72-30.72 30.72zM581.376 587.7248H447.0272c-16.9472 0-30.72-13.7728-30.72-30.72s13.7728-30.72 30.72-30.72h134.2976c16.9472 0 30.72 13.7728 30.72 30.72s-13.7216 30.72-30.6688 30.72zM346.112 738.048H211.8144c-16.9472 0-30.72-13.7728-30.72-30.72s13.7728-30.72 30.72-30.72H346.112c16.9472 0 30.72 13.7728 30.72 30.72s-13.7728 30.72-30.72 30.72zM581.376 738.048H447.0272c-16.9472 0-30.72-13.7728-30.72-30.72s13.7728-30.72 30.72-30.72h134.2976c16.9472 0 30.72 13.7728 30.72 30.72s-13.7216 30.72-30.6688 30.72zM818.9952 587.7248h-134.2976c-16.9472 0-30.72-13.7728-30.72-30.72s13.7728-30.72 30.72-30.72h134.2976c16.9472 0 30.72 13.7728 30.72 30.72s-13.7728 30.72-30.72 30.72z" fill="#FF623E" p-id="4793"></path><path d="M758.3232 170.2912c-16.9472 0-30.72 13.7728-30.72 30.72s13.7728 30.72 30.72 30.72c82.1248 0 144.6912 64 148.736 150.272H123.3408c4.0448-86.272 66.6112-150.272 148.736-150.272 16.9472 0 30.72-13.7728 30.72-30.72s-13.7728-30.72-30.72-30.72c-119.9616 0-210.432 94.8736-210.432 220.672v316.6208c0 121.6512 98.9696 220.672 220.672 220.672h465.7664c121.6512 0 220.672-98.9696 220.672-220.672V390.9632c0-125.7984-90.4704-220.672-210.432-220.672z m-10.24 696.5248H282.3168c-87.808 0-159.232-71.424-159.232-159.232V443.4944H907.264v264.0896c0.0512 87.808-71.3728 159.232-159.1808 159.232z" fill="#303135" p-id="4794"></path><path d="M422.2464 231.7312h187.904c16.9472 0 30.72-13.7728 30.72-30.72s-13.7728-30.72-30.72-30.72h-187.904c-16.9472 0-30.72 13.7728-30.72 30.72s13.7216 30.72 30.72 30.72zM687.0528 318.1056c16.9472 0 30.72-13.7728 30.72-30.72V126.464c0-16.9472-13.7728-30.72-30.72-30.72s-30.72 13.7728-30.72 30.72v160.9216c0 16.9984 13.7216 30.72 30.72 30.72zM344.7296 318.1056c16.9472 0 30.72-13.7728 30.72-30.72V126.464c0-16.9472-13.7728-30.72-30.72-30.72s-30.72 13.7728-30.72 30.72v160.9216c0 16.9984 13.7216 30.72 30.72 30.72z" fill="#303135" p-id="4795"></path></svg>