<?xml version="1.0" standalone="no"?><!DOCTYPE svg PUBLIC "-//W3C//DTD SVG 1.1//EN" "http://www.w3.org/Graphics/SVG/1.1/DTD/svg11.dtd"><svg t="1611798835110" class="icon" viewBox="0 0 1024 1024" version="1.1" xmlns="http://www.w3.org/2000/svg" p-id="5824" width="128" height="128" xmlns:xlink="http://www.w3.org/1999/xlink"><defs><style type="text/css"></style></defs><path d="M760.832 948.9408H273.408c-73.4208 0-133.12-59.6992-133.12-133.12V201.0112c0-73.4208 59.6992-133.12 133.12-133.12h487.3728c73.4208 0 133.12 59.6992 133.12 133.12v614.8096c0.0512 73.4208-59.6992 133.12-133.0688 133.12zM273.408 129.3312c-39.5264 0-71.68 32.1536-71.68 71.68v614.8096c0 39.5264 32.1536 71.68 71.68 71.68h487.3728c39.5264 0 71.68-32.1536 71.68-71.68V201.0112c0-39.5264-32.1536-71.68-71.68-71.68H273.408z" fill="#303135" p-id="5825"></path><path d="M531.4048 392.0896h-196.096c-16.9472 0-30.72-13.7728-30.72-30.72s13.7728-30.72 30.72-30.72h196.096c16.9472 0 30.72 13.7728 30.72 30.72s-13.7728 30.72-30.72 30.72zM698.0608 560.6912H335.3088c-16.9472 0-30.72-13.7728-30.72-30.72s13.7728-30.72 30.72-30.72h362.752c16.9472 0 30.72 13.7728 30.72 30.72s-13.7728 30.72-30.72 30.72zM698.0608 724.224H335.3088c-16.9472 0-30.72-13.7728-30.72-30.72s13.7728-30.72 30.72-30.72h362.752c16.9472 0 30.72 13.7728 30.72 30.72s-13.7728 30.72-30.72 30.72z" fill="#FF623E" p-id="5826"></path></svg>