<svg t="1624245411741" class="icon" viewBox="0 0 1024 1024" version="1.1" xmlns="http://www.w3.org/2000/svg" p-id="3260" width="128" height="128"><path d="M512 962.816c-244.9408 0-436.8384-104.96-436.8384-238.8992 0-47.4624 24.064-92.8768 69.5808-131.328a30.67904 30.67904 0 0 1 39.6288 0c67.9424 57.3952 193.4848 93.0816 327.6288 93.0816s259.6352-35.6864 327.6288-93.0816a30.67904 30.67904 0 0 1 39.6288 0c45.5168 38.4512 69.5808 83.8656 69.5808 131.328 0 133.9904-191.8976 238.8992-436.8384 238.8992z m-345.2416-306.3296c-16.0768 17.664-30.1568 40.7552-30.1568 67.4816 0 85.7088 150.8352 177.4592 375.3984 177.4592 224.5632 0 375.3984-91.7504 375.3984-177.4592 0-26.7264-14.0288-49.8176-30.1568-67.4816-81.664 57.1392-208.0768 90.6752-345.2416 90.6752-137.216 0-263.6288-33.536-345.2416-90.6752z" fill="#303135" p-id="3261"></path><path d="M512 747.1616c-244.9408 0-436.8384-104.96-436.8384-238.8992 0-45.568 22.4256-89.5488 64.8192-127.0784a30.76096 30.76096 0 0 1 40.7552 0C247.808 440.6272 374.784 477.5424 512 477.5424s264.192-36.9152 331.264-96.3584a30.76096 30.76096 0 0 1 40.7552 0c42.3936 37.5808 64.8192 81.5104 64.8192 127.0784 0 133.9392-191.8976 238.8992-436.8384 238.8992zM162.816 445.3888c-14.1824 16.7936-26.2144 38.2464-26.2144 62.8736 0 85.7088 150.8352 177.4592 375.3984 177.4592 224.5632 0 375.3984-91.7504 375.3984-177.4592 0-24.576-12.032-46.08-26.2144-62.8736-81.4592 58.9824-209.2032 93.5936-349.2352 93.5936S244.224 504.3712 162.816 445.3888z" fill="#FF623E" p-id="3262"></path><path d="M512 538.9824c-244.9408 0-436.8384-104.96-436.8384-238.8992 0-133.9392 191.8976-238.8992 436.8384-238.8992s436.8384 104.96 436.8384 238.8992c0 133.9392-191.8976 238.8992-436.8384 238.8992z m0-416.3584c-224.5632 0-375.3984 91.7504-375.3984 177.4592S287.4368 477.5424 512 477.5424c224.5632 0 375.3984-91.7504 375.3984-177.4592S736.5632 122.624 512 122.624z" fill="#303135" p-id="3263"></path></svg>