<svg t="1624250300662" class="icon" viewBox="0 0 1024 1024" version="1.1" xmlns="http://www.w3.org/2000/svg" p-id="3633" width="128" height="128"><path d="M790.8352 971.6224H232.192c-73.4208 0-133.12-59.6992-133.12-133.12V189.1328c0-73.4208 59.6992-133.12 133.12-133.12h558.6432c73.4208 0 133.12 59.6992 133.12 133.12v649.3184c0 73.4208-59.6992 133.1712-133.12 133.1712zM232.192 117.4528c-39.5264 0-71.68 32.1536-71.68 71.68v649.3184c0 39.5264 32.1536 71.68 71.68 71.68h558.6432c39.5264 0 71.68-32.1536 71.68-71.68V189.1328c0-39.5264-32.1536-71.68-71.68-71.68H232.192z" fill="#303135" p-id="3634"></path><path d="M708.9152 391.8336H319.3856c-16.9472 0-30.72-13.7728-30.72-30.72s13.7728-30.72 30.72-30.72h389.5296c16.9472 0 30.72 13.7728 30.72 30.72s-13.7728 30.72-30.72 30.72zM708.9152 542.72H319.3856c-16.9472 0-30.72-13.7728-30.72-30.72s13.7728-30.72 30.72-30.72h389.5296c16.9472 0 30.72 13.7728 30.72 30.72s-13.7728 30.72-30.72 30.72zM583.424 693.6064H319.3856c-16.9472 0-30.72-13.7728-30.72-30.72s13.7728-30.72 30.72-30.72h264.0384c16.9472 0 30.72 13.7728 30.72 30.72s-13.7728 30.72-30.72 30.72z" fill="#FF623E" p-id="3635"></path></svg>