<svg t="1622777338930" class="icon" viewBox="0 0 1024 1024" version="1.1" xmlns="http://www.w3.org/2000/svg" p-id="2964" width="128" height="128"><path d="M834.6112 847.7184h-65.4848c-35.9424 0-69.7344-13.9776-95.232-39.2704l-21.3504-21.1968c-13.8752-13.824-32.3072-21.4016-51.9168-21.4016H459.6224c-20.3264 0-39.936 8.4992-53.8112 23.3472l-14.6432 15.6672c-25.4464 27.2384-61.44 42.9056-98.7136 42.9056H195.9424a134.99392 134.99392 0 0 1-133.888-152.6272l54.7328-416.4608c8.6528-65.9968 65.4336-115.7632 131.9936-115.7632h532.992c66.56 0 123.2896 49.7664 131.9936 115.7632l54.7328 416.4608c5.0688 38.5536-6.7584 77.4144-32.3584 106.6496a135.2192 135.2192 0 0 1-101.5296 45.9264z m-374.9888-143.36h141.056c35.9424 0 69.7344 13.9776 95.232 39.2704l21.3504 21.1968a73.0112 73.0112 0 0 0 51.8656 21.4016h65.4848c21.1968 0 41.3696-9.1136 55.296-25.0368s20.3776-37.12 17.664-58.112l-54.7328-416.512c-4.6592-35.5328-35.2256-62.3616-71.0656-62.3616H248.7808c-35.84 0-66.4064 26.7776-71.0656 62.3616l-54.7328 416.512a73.728 73.728 0 0 0 17.6128 58.112c13.9776 15.9232 34.1504 25.0368 55.296 25.0368h96.5632c20.3264 0 39.936-8.4992 53.8112-23.3984l14.6432-15.6672c25.4464-27.136 61.3888-42.8032 98.7136-42.8032z" fill="#303135" p-id="2965"></path><path d="M438.784 442.2656H383.744V387.2256c0-16.9472-13.7728-30.72-30.72-30.72s-30.72 13.7728-30.72 30.72v55.04H267.2128c-16.9472 0-30.72 13.7728-30.72 30.72s13.7728 30.72 30.72 30.72h55.0912v55.0912c0 16.9472 13.7728 30.72 30.72 30.72s30.72-13.7728 30.72-30.72V503.7056H438.784c16.9472 0 30.72-13.7728 30.72-30.72s-13.7216-30.72-30.72-30.72zM728.0128 585.216h-94.1056c-10.9568 0-21.0944-5.8368-26.624-15.36l-47.0528-81.5104a30.76608 30.76608 0 0 1 0-30.72l47.0528-81.5104c5.4784-9.5232 15.616-15.36 26.624-15.36h94.1056c10.9568 0 21.0944 5.8368 26.624 15.36l47.0528 81.5104a30.76608 30.76608 0 0 1 0 30.72l-47.0528 81.5104a30.72 30.72 0 0 1-26.624 15.36z m-76.3904-61.44h58.6752l29.3376-50.7904-29.3376-50.7904h-58.6752l-29.3376 50.7904 29.3376 50.7904z" fill="#FF623E" p-id="2966"></path></svg>