<svg t="1624245362630" class="icon" viewBox="0 0 1024 1024" version="1.1" xmlns="http://www.w3.org/2000/svg" p-id="3071" width="128" height="128"><path d="M684.032 844.1344H344.1664c-16.9472 0-30.72-13.7728-30.72-30.72v-88.1152c-104.3968-69.12-166.6048-187.8528-163.2768-313.5488 2.4576-93.8496 40.96-182.1696 108.3904-248.7808 67.4304-66.6112 156.2624-104.0384 250.112-105.4208 98.1504-1.5872 190.976 35.7376 260.9664 104.704 69.9904 68.9664 108.544 161.0752 108.544 259.328 0 121.856-62.1568 236.6464-163.3792 303.7184v88.1152c-0.0512 16.9984-13.824 30.72-30.7712 30.72z m-309.1456-61.44h278.4256v-74.3424c0-10.8544 5.7344-20.8896 15.0528-26.4192 91.5456-54.3744 148.3776-154.112 148.3776-260.352 0-81.664-32.0512-158.208-90.2144-215.552-58.1632-57.344-135.1168-88.1152-216.9344-87.04-160.1024 2.3552-293.7856 134.4-297.984 294.4-2.8672 108.7488 53.248 211.2512 146.432 267.4688a35.00032 35.00032 0 0 1 16.8448 29.7984v72.0384z" fill="#303135" p-id="3072"></path><path d="M371.6096 589.2096c-7.5776 0-15.2064-2.816-21.1456-8.448-41.472-39.424-63.8976-94.0032-64.9216-157.9008-0.4608-29.8496 4.4544-62.7712 10.0864-81.0496 0.2048-0.9728 0.4608-1.9456 0.768-2.9696l0.1536 0.0512v-0.0512l-0.1536-0.0512 0.1536 0.0512c1.3312-3.9424 2.7136-6.9632 4.096-8.9088a30.69952 30.69952 0 0 1 38.7584-9.984c11.776 5.7856 20.8896 20.5312 15.5136 37.4272-0.0512 0.2048-0.1024 0.4096-0.2048 0.5632-2.8672 9.8304-30.6176 113.0496 37.9904 178.2784 12.288 11.6736 12.8 31.1296 1.0752 43.4176a30.2592 30.2592 0 0 1-22.1696 9.5744z" fill="#FF623E" p-id="3073"></path><path d="M675.6352 960.512h-321.536c-16.9472 0-30.72-13.7728-30.72-30.72s13.7728-30.72 30.72-30.72h321.536c16.9472 0 30.72 13.7728 30.72 30.72s-13.7216 30.72-30.72 30.72z" fill="#303135" p-id="3074"></path></svg>