<?xml version="1.0" standalone="no"?><!DOCTYPE svg PUBLIC "-//W3C//DTD SVG 1.1//EN" "http://www.w3.org/Graphics/SVG/1.1/DTD/svg11.dtd"><svg t="1611798723738" class="icon" viewBox="0 0 1024 1024" version="1.1" xmlns="http://www.w3.org/2000/svg" p-id="5206" width="128" height="128" xmlns:xlink="http://www.w3.org/1999/xlink"><defs><style type="text/css"></style></defs><path d="M520.0896 647.2704c-108.9536 0-197.5808-88.6272-197.5808-197.5808s88.6272-197.5808 197.5808-197.5808 197.5808 88.6272 197.5808 197.5808-88.6272 197.5808-197.5808 197.5808z m0-333.7728c-75.0592 0-136.1408 61.0816-136.1408 136.1408s61.0816 136.1408 136.1408 136.1408 136.1408-61.0816 136.1408-136.1408-61.0816-136.1408-136.1408-136.1408z" fill="#FF623E" p-id="5207"></path><path d="M517.9904 974.8992c-16.2304 0-32.512-4.352-47.104-13.056-134.656-80.384-348.2624-290.5088-348.2624-512.2048 0-219.136 178.2784-397.4144 397.4144-397.4144s397.4144 178.2784 397.4144 397.4144c0 264.8064-267.52 457.6768-349.4912 510.464a91.904 91.904 0 0 1-49.9712 14.7968z m2.0992-861.2352c-185.2416 0-335.9744 150.7328-335.9744 335.9744 0 185.856 186.112 380.5184 318.3104 459.4176 10.0352 5.9904 22.4256 5.7344 32.3584-0.6656 75.3664-48.5376 321.3312-225.0752 321.3312-458.8032-0.0512-185.1904-150.784-335.9232-336.0256-335.9232z" fill="#303135" p-id="5208"></path></svg>