<?xml version="1.0" standalone="no"?><!DOCTYPE svg PUBLIC "-//W3C//DTD SVG 1.1//EN" "http://www.w3.org/Graphics/SVG/1.1/DTD/svg11.dtd"><svg t="1611799209020" class="icon" viewBox="0 0 1024 1024" version="1.1" xmlns="http://www.w3.org/2000/svg" p-id="6228" width="128" height="128" xmlns:xlink="http://www.w3.org/1999/xlink"><defs><style type="text/css"></style></defs><path d="M981.0432 437.7088l-108.1344-105.5744c-16.128-15.7184-37.376-24.4224-59.904-24.4224h-138.9568V253.0816c0-77.6192-63.1296-140.7488-140.7488-140.7488H157.9008c-77.6192 0-140.7488 63.1296-140.7488 140.7488v423.0656c0 65.4848 53.248 118.7328 118.7328 118.7328h23.9104c16.9472 0 30.72-13.7728 30.72-30.72s-13.7728-30.72-30.72-30.72h-23.9104c-31.5904 0-57.2928-25.7024-57.2928-57.2928V253.0816c0-43.7248 35.584-79.3088 79.3088-79.3088h375.4496c43.7248 0 79.3088 35.584 79.3088 79.3088V733.44h-184.32c-16.9472 0-30.72 13.7728-30.72 30.72s13.7728 30.72 30.72 30.72H685.1072c16.9472 0 30.72-13.7728 30.72-30.72s-13.7728-30.72-30.72-30.72h-11.0592V369.152h138.9568a24.064 24.064 0 0 1 16.9472 6.912l108.1344 105.5744c4.6592 4.5568 7.3216 10.9056 7.3216 17.3568l0.2048 234.4448c-16.9472 0-30.72 13.7728-30.72 30.72s13.7728 30.72 30.72 30.72c33.792 0 61.2352-27.4944 61.2352-61.2352V499.0464c0-22.9376-9.4208-45.312-25.8048-61.3376z" fill="#303135" p-id="6229"></path><path d="M296.448 905.1136c-77.7216 0-140.9024-63.232-140.9024-140.9024 0-77.7216 63.232-140.9024 140.9024-140.9024 77.7216 0 140.9024 63.232 140.9024 140.9024s-63.232 140.9024-140.9024 140.9024z m0-220.416c-43.8272 0-79.4624 35.6352-79.4624 79.4624s35.6352 79.4624 79.4624 79.4624 79.4624-35.6352 79.4624-79.4624-35.6352-79.4624-79.4624-79.4624zM809.728 900.864c-75.3664 0-136.6528-61.2864-136.6528-136.6528s61.2864-136.6528 136.6528-136.6528 136.6528 61.2864 136.6528 136.6528c0.0512 75.3152-61.2864 136.6528-136.6528 136.6528z m0-211.9168c-41.472 0-75.2128 33.7408-75.2128 75.2128s33.7408 75.2128 75.2128 75.2128 75.2128-33.7408 75.2128-75.2128-33.6896-75.2128-75.2128-75.2128z" fill="#FF623E" p-id="6230"></path></svg>