<svg t="1624245544400" class="icon" viewBox="0 0 1024 1024" version="1.1" xmlns="http://www.w3.org/2000/svg" p-id="3449" width="128" height="128"><path d="M367.2576 936.8576H186.88c-62.1056 0-112.64-50.5344-112.64-112.64V199.7824c0-62.1056 50.5344-112.64 112.64-112.64h180.3776c62.1056 0 112.64 50.5344 112.64 112.64v624.4352c0 62.1056-50.5344 112.64-112.64 112.64zM186.88 148.5824c-28.2112 0-51.2 22.9888-51.2 51.2v624.4352c0 28.2112 22.9888 51.2 51.2 51.2h180.3776c28.2112 0 51.2-22.9888 51.2-51.2V199.7824c0-28.2112-22.9888-51.2-51.2-51.2H186.88zM840.3968 542.72h-180.3776c-62.1056 0-112.64-50.5344-112.64-112.64V199.7824c0-62.1056 50.5344-112.64 112.64-112.64h180.3776c62.1056 0 112.64 50.5344 112.64 112.64V430.08c0 62.1056-50.5344 112.64-112.64 112.64z m-180.3264-394.1376c-28.2112 0-51.2 22.9888-51.2 51.2V430.08c0 28.2112 22.9888 51.2 51.2 51.2h180.3776c28.2112 0 51.2-22.9888 51.2-51.2V199.7824c0-28.2112-22.9888-51.2-51.2-51.2h-180.3776z" fill="#303135" p-id="3450"></path><path d="M840.3968 936.8576h-180.3776c-62.1056 0-112.64-50.5344-112.64-112.64v-100.5568c0-62.1056 50.5344-112.64 112.64-112.64h180.3776c62.1056 0 112.64 50.5344 112.64 112.64v100.5568c0 62.1056-50.5344 112.64-112.64 112.64z m-180.3264-264.3968c-28.2112 0-51.2 22.9888-51.2 51.2v100.5568c0 28.2112 22.9888 51.2 51.2 51.2h180.3776c28.2112 0 51.2-22.9888 51.2-51.2v-100.5568c0-28.2112-22.9888-51.2-51.2-51.2h-180.3776z" fill="#FF623E" p-id="3451"></path></svg>