<?xml version="1.0" standalone="no"?><!DOCTYPE svg PUBLIC "-//W3C//DTD SVG 1.1//EN" "http://www.w3.org/Graphics/SVG/1.1/DTD/svg11.dtd"><svg t="1611799392715" class="icon" viewBox="0 0 1024 1024" version="1.1" xmlns="http://www.w3.org/2000/svg" p-id="6430" width="128" height="128" xmlns:xlink="http://www.w3.org/1999/xlink"><defs><style type="text/css"></style></defs><path d="M817.2032 801.9968H210.6368c-73.4208 0-133.12-59.6992-133.12-133.12V225.28c0-73.4208 59.6992-133.12 133.12-133.12h606.5664c73.4208 0 133.12 59.6992 133.12 133.12v443.5968c0 73.3696-59.6992 133.12-133.12 133.12zM210.6368 153.6c-39.5264 0-71.68 32.1536-71.68 71.68v443.5968c0 39.5264 32.1536 71.68 71.68 71.68h606.5664c39.5264 0 71.68-32.1536 71.68-71.68V225.28c0-39.5264-32.1536-71.68-71.68-71.68H210.6368z" fill="#303135" p-id="6431"></path><path d="M682.3424 952.1152H350.3104c-16.9472 0-30.72-13.7728-30.72-30.72s13.7728-30.72 30.72-30.72h332.032c16.9472 0 30.72 13.7728 30.72 30.72s-13.7728 30.72-30.72 30.72z" fill="#FF623E" p-id="6432"></path></svg>