<?xml version="1.0" standalone="no"?><!DOCTYPE svg PUBLIC "-//W3C//DTD SVG 1.1//EN" "http://www.w3.org/Graphics/SVG/1.1/DTD/svg11.dtd"><svg t="1611798584432" class="icon" viewBox="0 0 1024 1024" version="1.1" xmlns="http://www.w3.org/2000/svg" p-id="3776" width="128" height="128" xmlns:xlink="http://www.w3.org/1999/xlink"><defs><style type="text/css"></style></defs><path d="M512 441.4976c-63.4368 0-115.0464-51.6096-115.0464-115.0464 0-63.4368 51.6096-115.0464 115.0464-115.0464s115.0464 51.6096 115.0464 115.0464c0 63.488-51.6096 115.0464-115.0464 115.0464z m0-168.6016c-29.5424 0-53.6064 24.064-53.6064 53.6064 0 29.5424 24.064 53.6064 53.6064 53.6064s53.6064-24.064 53.6064-53.6064c0-29.5936-24.064-53.6064-53.6064-53.6064z" fill="#FF623E" p-id="3777"></path><path d="M512 790.528c-7.3216 0-14.592-2.56-20.4288-7.7824-122.9824-109.7216-253.6448-306.944-253.6448-456.2944 0-151.1424 122.9824-274.1248 274.1248-274.1248s274.1248 122.9824 274.1248 274.1248c0 179.7632-158.2592 362.3936-252.5696 455.2704a30.83776 30.83776 0 0 1-21.6064 8.8064z m0-676.7104c-117.248 0-212.6848 95.3856-212.6848 212.6848 0 118.8352 104.3456 285.952 211.8656 390.6048 136.0384-139.8272 213.504-281.088 213.504-390.6048 0-117.2992-95.4368-212.6848-212.6848-212.6848z" fill="#303135" p-id="3778"></path><path d="M508.9792 971.6224c-231.1168 0-465.0496-58.7264-465.0496-170.9056 0-64 76.5952-115.9168 215.6544-146.2784 16.5376-3.6352 32.9216 6.912 36.5568 23.4496 3.6352 16.5888-6.912 32.9216-23.4496 36.5568-122.7776 26.7776-167.3216 66.2528-167.3216 86.2208 0 43.5712 160.9728 109.4656 403.6096 109.4656s403.6096-65.8944 403.6096-109.4656c0-18.5344-40.3456-55.8592-151.4496-82.5856a30.78144 30.78144 0 0 1-22.6816-37.0688 30.68928 30.68928 0 0 1 37.0688-22.6816c128 30.8224 198.5024 81.3568 198.5024 142.336 0 112.2304-233.9328 170.9568-465.0496 170.9568z" fill="#303135" p-id="3779"></path></svg>