<?xml version="1.0" standalone="no"?><!DOCTYPE svg PUBLIC "-//W3C//DTD SVG 1.1//EN" "http://www.w3.org/Graphics/SVG/1.1/DTD/svg11.dtd"><svg t="1611798774350" class="icon" viewBox="0 0 1024 1024" version="1.1" xmlns="http://www.w3.org/2000/svg" p-id="5412" width="128" height="128" xmlns:xlink="http://www.w3.org/1999/xlink"><defs><style type="text/css"></style></defs><path d="M510.3616 973.4656c-252.416 0-457.7792-205.3632-457.7792-457.7792s205.3632-457.7792 457.7792-457.7792 457.7792 205.3632 457.7792 457.7792-205.3632 457.7792-457.7792 457.7792z m0-854.1184c-218.5216 0-396.3392 177.7664-396.3392 396.3392S291.84 912.0256 510.3616 912.0256s396.3392-177.7664 396.3392-396.3392-177.8176-396.3392-396.3392-396.3392z" fill="#303135" p-id="5413"></path><path d="M655.6672 585.216h-116.6336v-49.9712h116.6336c16.9472 0 30.72-13.7728 30.72-30.72s-13.7728-30.72-30.72-30.72h-80.3328l102.3488-104.96c11.8272-12.1344 11.6224-31.5904-0.5632-43.4176-12.1344-11.8272-31.5904-11.6224-43.4176 0.5632L508.3136 454.5536 382.9248 325.9392a30.72 30.72 0 0 0-43.4176-0.5632 30.72 30.72 0 0 0-0.5632 43.4176l102.3488 104.96H360.96c-16.9472 0-30.72 13.7728-30.72 30.72s13.7728 30.72 30.72 30.72h116.6336v49.9712H360.96c-16.9472 0-30.72 13.7728-30.72 30.72s13.7728 30.72 30.72 30.72h116.6336v84.6336c0 16.9472 13.7728 30.72 30.72 30.72s30.72-13.7728 30.72-30.72V646.656h116.6336c16.9472 0 30.72-13.7728 30.72-30.72s-13.7728-30.72-30.72-30.72z" fill="#FF623E" p-id="5414"></path></svg>