<?xml version="1.0" standalone="no"?><!DOCTYPE svg PUBLIC "-//W3C//DTD SVG 1.1//EN" "http://www.w3.org/Graphics/SVG/1.1/DTD/svg11.dtd"><svg t="1611798433153" class="icon" viewBox="0 0 1024 1024" version="1.1" xmlns="http://www.w3.org/2000/svg" p-id="3314" width="128" height="128" xmlns:xlink="http://www.w3.org/1999/xlink"><defs><style type="text/css"></style></defs><path d="M741.376 59.6992H280.7296c-84.992 0-154.1632 70.3488-154.1632 156.8256v589.7728c0 86.4768 69.1712 156.8256 154.1632 156.8256h339.8656c7.8848 0 15.5136-3.072 21.248-8.4992l244.2752-233.4208a30.78656 30.78656 0 0 0 9.472-22.2208V216.5248c-0.0512-86.4768-69.2224-156.8256-154.2144-156.8256zM188.0064 806.2464V216.5248c0-52.5824 41.5744-95.3856 92.7232-95.3856h460.6464c51.1488 0 92.7232 42.8032 92.7232 95.3856v450.0992h-136.96c-57.2928 0-103.8848 47.3088-103.8848 105.4208v129.5872H280.7296c-51.1488 0-92.7232-42.752-92.7232-95.3856z m466.688 50.9952v-85.1968c0-24.2688 19.0464-43.9808 42.4448-43.9808h92.7744l-61.7984 59.0848-73.4208 70.0928z" fill="#303135" p-id="3315"></path><path d="M670.976 380.3136H354.2528c-16.9472 0-30.72-13.7728-30.72-30.72s13.7728-30.72 30.72-30.72h316.7232c16.9472 0 30.72 13.7728 30.72 30.72s-13.7216 30.72-30.72 30.72zM670.976 531.6608H354.2528c-16.9472 0-30.72-13.7728-30.72-30.72s13.7728-30.72 30.72-30.72h316.7232c16.9472 0 30.72 13.7728 30.72 30.72s-13.7216 30.72-30.72 30.72zM479.9488 691.0464H354.2528c-16.9472 0-30.72-13.7728-30.72-30.72s13.7728-30.72 30.72-30.72h125.6448c16.9472 0 30.72 13.7728 30.72 30.72s-13.7216 30.72-30.6688 30.72z" fill="#FF623E" p-id="3316"></path></svg>