<?xml version="1.0" standalone="no"?><!DOCTYPE svg PUBLIC "-//W3C//DTD SVG 1.1//EN" "http://www.w3.org/Graphics/SVG/1.1/DTD/svg11.dtd"><svg t="1611798788787" class="icon" viewBox="0 0 1024 1024" version="1.1" xmlns="http://www.w3.org/2000/svg" p-id="5618" width="128" height="128" xmlns:xlink="http://www.w3.org/1999/xlink"><defs><style type="text/css"></style></defs><path d="M239.872 824.2176H185.2416c-50.7904 0-92.16-41.3696-92.16-92.16V449.024c0-50.7904 41.3696-92.16 92.16-92.16h54.6304c50.7904 0 92.16 41.3696 92.16 92.16v283.0336c0 50.7904-41.3184 92.16-92.16 92.16zM185.2416 418.304c-16.9472 0-30.72 13.7728-30.72 30.72v283.0336c0 16.9472 13.7728 30.72 30.72 30.72h54.6304c16.9472 0 30.72-13.7728 30.72-30.72V449.024c0-16.9472-13.7728-30.72-30.72-30.72H185.2416zM539.1872 824.2176H484.5056c-50.7904 0-92.16-41.3696-92.16-92.16V307.8656c0-50.7904 41.3696-92.16 92.16-92.16h54.6304c50.7904 0 92.16 41.3696 92.16 92.16v424.192c0.0512 50.7904-41.3184 92.16-92.1088 92.16zM484.5056 277.1456c-16.9472 0-30.72 13.7728-30.72 30.72v424.192c0 16.9472 13.7728 30.72 30.72 30.72h54.6304c16.9472 0 30.72-13.7728 30.72-30.72V307.8656c0-16.9472-13.7728-30.72-30.72-30.72H484.5056zM834.9184 824.2176H780.288c-50.7904 0-92.16-41.3696-92.16-92.16V174.5408c0-50.7904 41.3696-92.16 92.16-92.16h54.6304c50.7904 0 92.16 41.3696 92.16 92.16v557.5168c0 50.7904-41.3184 92.16-92.16 92.16zM780.288 143.8208c-16.9472 0-30.72 13.7728-30.72 30.72v557.5168c0 16.9472 13.7728 30.72 30.72 30.72h54.6304c16.9472 0 30.72-13.7728 30.72-30.72V174.5408c0-16.9472-13.7728-30.72-30.72-30.72H780.288z" fill="#303135" p-id="5619"></path><path d="M896.3584 936.8576H123.8016c-16.9472 0-30.72-13.7728-30.72-30.72s13.7728-30.72 30.72-30.72h772.5568c16.9472 0 30.72 13.7728 30.72 30.72s-13.7728 30.72-30.72 30.72z" fill="#FF623E" p-id="5620"></path></svg>