<?xml version="1.0" standalone="no"?><!DOCTYPE svg PUBLIC "-//W3C//DTD SVG 1.1//EN" "http://www.w3.org/Graphics/SVG/1.1/DTD/svg11.dtd"><svg t="1611798688569" class="icon" viewBox="0 0 1024 1024" version="1.1" xmlns="http://www.w3.org/2000/svg" p-id="4388" width="128" height="128" xmlns:xlink="http://www.w3.org/1999/xlink"><defs><style type="text/css"></style></defs><path d="M821.6064 792.3712H215.04c-73.4208 0-133.12-59.6992-133.12-133.12V215.6544c0-73.4208 59.6992-133.12 133.12-133.12h606.5664c73.4208 0 133.12 59.6992 133.12 133.12v443.5968c0 73.3696-59.7504 133.12-133.12 133.12zM215.04 143.9744c-39.5264 0-71.68 32.1536-71.68 71.68v443.5968c0 39.5264 32.1536 71.68 71.68 71.68h606.5664c39.5264 0 71.68-32.1536 71.68-71.68V215.6544c0-39.5264-32.1536-71.68-71.68-71.68H215.04zM712.4992 942.4896H324.096c-16.9472 0-30.72-13.7728-30.72-30.72s13.7728-30.72 30.72-30.72h388.4032c16.9472 0 30.72 13.7728 30.72 30.72s-13.7216 30.72-30.72 30.72z" fill="#303135" p-id="4389"></path><path d="M324.608 566.528c-16.9472 0-30.72-13.7728-30.72-30.72V444.6208c0-16.9472 13.7728-30.72 30.72-30.72s30.72 13.7728 30.72 30.72v91.1872c0 16.9472-13.7216 30.72-30.72 30.72zM514.3552 566.528c-16.9472 0-30.72-13.7728-30.72-30.72V319.6416c0-16.9472 13.7728-30.72 30.72-30.72s30.72 13.7728 30.72 30.72v216.1664c0 16.9472-13.7728 30.72-30.72 30.72zM705.9968 566.528c-16.9472 0-30.72-13.7728-30.72-30.72V388.7616c0-16.9472 13.7728-30.72 30.72-30.72s30.72 13.7728 30.72 30.72v147.0464c0 16.9472-13.7216 30.72-30.72 30.72z" fill="#FF623E" p-id="4390"></path></svg>