<svg t="1629798507811" class="icon" viewBox="0 0 1024 1024" version="1.1" xmlns="http://www.w3.org/2000/svg"
    p-id="32311" width="128" height="128">
    <path
        d="M271.84385 239.331877 257.588171 235.508805 265.598612 205.603705 235.693512 197.593264 227.684094 227.499387Z"
        p-id="32312"></path>
    <path d="M572.094168 287.73426 557.144688 283.7229 549.134247 313.630047 564.085774 317.638337Z" p-id="32313">
    </path>
    <path
        d="M212.731544 223.491097l7.476275 2.003634 8.010441-29.904077-7.476275-2.00568c-24.774243-6.632047-50.236148 8.072863-56.868195 32.837896l29.904077 8.010441C195.983091 226.182392 204.47244 221.283826 212.731544 223.491097L212.731544 223.491097z"
        p-id="32314"></path>
    <path
        d="M181.750949 279.289937 180.45135 284.134269 193.767634 234.432287 191.764 241.910609 161.860946 233.900168 163.865603 226.422869 150.631184 275.81479 151.846872 271.27131Z"
        p-id="32315"></path>
    <path d="M179.753455 286.766213 149.848355 278.755772 147.844721 286.232047 177.748798 294.242488Z" p-id="32316">
    </path>
    <path
        d="M511.751848 303.613926 519.762289 273.710872 532.222065 277.045827 512.287037 271.706215 504.276596 301.610292 474.284515 293.577339Z"
        p-id="32317"></path>
    <path
        d="M474.906685 261.699304 467.43041 259.694647 459.420993 289.598724 451.943694 287.594067 459.954135 257.68999 280.541953 209.613018 272.531512 239.518119 466.897268 291.595194Z"
        p-id="32318"></path>
    <path
        d="M639.373481 305.765939 646.847709 307.769572 638.839315 337.675696 713.594903 357.704868 721.603297 327.799768 758.983649 337.813842 750.971162 367.717919 723.459574 360.342951 758.450507 369.715413 766.460947 339.812359 773.936199 341.815993 765.924735 371.72007 765.291308 371.550201 893.002992 405.77263 901.019573 375.868553 661.79412 311.771723 653.783679 341.6758 646.308427 339.672166 654.318868 309.767066 589.546655 292.415886 594.51583 293.747207 586.504366 323.652308 579.032184 321.647651 587.040578 291.742551 579.56328 289.737894 571.554886 319.642994 564.077587 317.638337 631.354853 335.662853Z"
        p-id="32319"></path>
    <path
        d="M888.314203 572.772109 918.220327 580.782549 906.196479 625.63713 876.300588 617.629759 868.284007 647.529743 898.189108 655.543254 897.010259 659.93733 922.227594 565.838186 892.323517 557.827745Z"
        p-id="32320"></path>
    <path
        d="M898.337487 535.39892 928.244634 543.40936 924.611897 556.961004 930.244174 535.933085 900.338051 527.923668Z"
        p-id="32321"></path>
    <path d="M834.230424 774.612093 864.134501 782.63072 892.173091 677.972079 862.276177 669.960615Z" p-id="32322">
    </path>
    <path
        d="M864.28288 662.486386 894.190027 670.494781 893.572974 672.803359 896.188544 663.019529 866.29163 655.007041Z"
        p-id="32323"></path>
    <path
        d="M923.438165 381.8815l-8.006348 29.896914c8.258081 2.214435 13.154601 10.704806 10.94426 18.961864l-16.796548 62.664202 0.765433-2.864234 29.90817 8.010441 16.031115-59.800991C962.915271 413.976476 948.211385 388.514571 923.438165 381.8815L923.438165 381.8815z"
        p-id="32324"></path>
    <path d="M175.745165 301.718763 145.840064 293.708322 139.833257 316.137147 169.739381 324.147588Z" p-id="32325">
    </path>
    <path
        d="M908.354632 498.017544 906.345881 505.494842 936.254052 513.503237 938.743756 504.217756 938.260755 506.025938Z"
        p-id="32326"></path>
    <path d="M147.697365 406.376381 117.793288 398.36594 109.782847 428.272064 139.687948 436.281481Z" p-id="32327">
    </path>
    <path d="M159.71712 361.519754 129.810996 353.509313 119.797945 390.890688 149.700999 398.900106Z" p-id="32328">
    </path>
    <path
        d="M830.231343 789.56362c-2.214435 8.258081-10.704806 13.156648-18.960841 10.942213l-119.611192-32.045857-8.010441 29.904077 10.818393 2.902096-3.342118-0.89744 8.008394-29.906124 7.475252 2.004657-8.008394 29.904077 104.658641 28.040636c24.77322 6.639211 50.234101-8.064676 56.865125-32.829709l2.00875-7.477298-29.90817-8.008394L830.231343 789.56362 830.231343 789.56362z"
        p-id="32329"></path>
    <path d="M137.683291 443.757756 107.779214 435.747315 71.721996 570.31208 101.626074 578.320475Z" p-id="32330">
    </path>
    <path
        d="M655.75559 758.838851 661.754211 760.447489 653.744793 790.355659 646.268518 788.351002 654.278959 758.444878 535.969413 726.746946 549.620317 730.406289 541.608853 760.309342 526.657326 756.300029 534.667767 726.394928 498.526639 716.713428 504.764714 718.386534 496.753249 748.289588 491.181347 746.796584 567.174112 767.161401 564.030515 766.31615 572.040956 736.412073 579.517231 738.414683 571.50679 768.320806 578.984089 770.325463 586.99453 740.41934 594.469781 742.423997 586.459341 772.329097 583.683111 771.586177 661.211858 792.358269 669.222299 762.454192 690.759825 768.228709Z"
        p-id="32331"></path>
    <path
        d="M444.970886 702.359512l-8.009418 29.904077-29.906124-8.010441 8.009418-29.904077-74.752518-20.028149-8.010441 29.906124-7.476275-2.006703 8.009418-29.904077 4.558829 1.220804L108.567159 612.226702c-8.257058-2.212388-13.155624-10.704806-10.942213-18.960841l2.003634-7.477298-29.904077-8.008394-2.004657 7.475252c-6.640234 24.77322 8.064676 50.235125 32.837896 56.876382l371.383402 99.510388-27.511587-7.374968 8.009418-29.906124 29.9051 8.012488-8.010441 29.904077 14.951527 4.007267 8.010441-29.904077L444.970886 702.359512 444.970886 702.359512z"
        p-id="32332"></path>
    <path d="M115.510292 646.130883 108.034017 644.126226 116.043435 614.224196 123.520733 616.228853Z" p-id="32333">
    </path>
    <path d="M182.787558 664.157445 130.462842 650.13201 138.47226 620.22998 190.797999 634.251322Z" p-id="32334">
    </path>
    <path d="M309.872978 698.210006 317.883419 668.305929 325.359694 670.308539 317.350277 700.214662Z" p-id="32335">
    </path>
    <path d="M354.722442 710.227714 347.248214 708.223057 355.257631 678.31898 362.733906 680.323637Z" p-id="32336">
    </path>
</svg>